<?xml version="1.0" standalone="no"?>
<!DOCTYPE svg PUBLIC "-//W3C//DTD SVG 20010904//EN"
 "http://www.w3.org/TR/2001/REC-SVG-20010904/DTD/svg10.dtd">
<svg version="1.0" xmlns="http://www.w3.org/2000/svg"
 width="700.000000pt" height="700.000000pt" viewBox="0 0 700.000000 700.000000"
 preserveAspectRatio="xMidYMid meet">
<metadata>
Created by potrace 1.11, written by Peter Selinger 2001-2013
</metadata>
<g transform="translate(0.000000,700.000000) scale(0.100000,-0.100000)"
fill="#000000" stroke="none">
<path d="M3240 6693 c-129 -74 -251 -145 -270 -156 -219 -124 -325 -186 -377
-218 -34 -22 -64 -39 -66 -39 -2 0 -141 -79 -308 -176 -167 -97 -324 -187
-349 -201 -25 -14 -70 -40 -100 -58 -30 -18 -75 -44 -100 -57 -25 -14 -169
-97 -320 -185 -151 -88 -375 -217 -498 -288 -156 -90 -227 -137 -236 -154 -10
-21 -12 -376 -12 -1673 1 -1634 1 -1648 21 -1666 16 -15 209 -129 405 -240 99
-56 546 -315 555 -322 6 -4 35 -21 65 -37 30 -17 100 -56 155 -88 55 -32 244
-141 420 -242 176 -102 349 -202 385 -223 394 -231 860 -495 882 -498 26 -4
153 66 697 382 62 36 118 66 122 66 5 0 9 5 9 10 0 6 5 10 10 10 6 0 90 46
188 103 97 57 197 115 222 129 25 14 101 58 170 98 69 40 141 81 160 92 19 11
76 44 125 73 50 29 106 61 125 72 75 43 616 354 630 363 15 9 116 68 181 105
186 106 241 140 252 155 10 14 13 363 12 1672 0 909 -4 1659 -8 1665 -8 13
-106 72 -377 228 -535 309 -849 490 -875 506 -16 10 -37 22 -45 26 -8 4 -78
44 -155 88 -77 45 -160 93 -185 107 -46 25 -397 229 -460 267 -19 11 -42 24
-50 28 -8 4 -46 26 -85 48 -38 23 -90 53 -115 67 -25 14 -85 49 -135 78 -49
29 -108 62 -130 75 -22 12 -88 50 -146 84 -58 33 -117 61 -130 61 -13 0 -130
-62 -259 -137z"/>
</g>
</svg>
